<?xml version="1.0" encoding="UTF-8"?>
<svg version="1.1" xmlns="http://www.w3.org/2000/svg" width="1882" height="900">
<path d="M0 0 C621.06 0 1242.12 0 1882 0 C1882 297 1882 594 1882 900 C1260.94 900 639.88 900 0 900 C0 603 0 306 0 0 Z " fill="#FBFBFC" transform="translate(0,0)"/>
<path d="M0 0 C505.23 0 1010.46 0 1531 0 C1530 2 1530 2 1527.59281646 3.10947519 C1522.84322972 4.28672008 1518.39019843 4.27319834 1513.51493657 4.24839699 C1512.45243295 4.25095317 1511.38992933 4.25350934 1510.29522863 4.25614297 C1506.70973492 4.26230261 1503.1244151 4.2541231 1499.53892708 4.24609566 C1496.94138838 4.24757416 1494.34385006 4.24993051 1491.74631286 4.25308865 C1486.06796849 4.25856349 1480.38966422 4.25656855 1474.71132185 4.24976636 C1466.21071599 4.23962316 1457.71013885 4.24101879 1449.20952914 4.24469952 C1434.72351884 4.25063624 1420.23752464 4.24707967 1405.75151634 4.23841095 C1391.06686277 4.229662 1376.38221752 4.22526494 1361.69756126 4.22621536 C1360.77088898 4.22627275 1359.84421669 4.22633013 1358.88946342 4.22638925 C1354.16455738 4.226702 1349.43965135 4.22708589 1344.71474532 4.22749493 C1310.4941646 4.23031174 1276.27359129 4.22344198 1242.05301285 4.21146011 C1208.15743091 4.19962037 1174.26185215 4.19191097 1140.36626816 4.18975449 C1138.78801736 4.18965125 1138.78801736 4.18965125 1137.17788271 4.18954593 C1127.56813733 4.18891954 1117.95839194 4.18834416 1108.34864655 4.18782998 C1084.45852491 4.18655109 1060.56840334 4.18463238 1036.67828178 4.18227959 C1035.5903067 4.18217295 1034.50233162 4.18206632 1033.3813876 4.18195645 C980.44110617 4.17671179 927.50082682 4.164096 874.56054688 4.15087891 C856.1861369 4.14629564 837.81172691 4.14174494 819.43731689 4.1373291 C818.29775408 4.1370552 817.15819126 4.1367813 815.98409624 4.13649911 C763.0213804 4.12381395 710.05866421 4.11636074 657.09594726 4.11025951 C653.65810927 4.10986338 650.22027129 4.109465 646.78243331 4.10906615 C623.99994655 4.10642662 601.21745979 4.10387732 578.43497301 4.10138843 C533.10240871 4.09643527 487.76984447 4.09095189 442.43728026 4.08510434 C440.27836284 4.08482586 438.11944542 4.08454775 435.960528 4.08427001 C338.75509706 4.0717618 241.54966765 4.05308528 144.34423828 4.03173828 C142.97877568 4.03143848 142.97877568 4.03143848 141.58572798 4.03113261 C96.0571519 4.02113143 50.5285759 4.01077837 5 4 C5 3.34 5 2.68 5 2 C3.35 2 1.7 2 0 2 C0 1.34 0 0.68 0 0 Z " fill="#DCDDDF" transform="translate(178,658)"/>
<path d="M0 0 C1.05048523 0.00607269 1.05048523 0.00607269 2.12219238 0.01226807 C2.86054321 0.00876343 3.59889404 0.00525879 4.35961914 0.00164795 C6.80661346 -0.00717336 9.25331999 -0.00131891 11.70031738 0.00543213 C13.39660701 0.00408559 15.09289627 0.00214515 16.78918457 -0.00036621 C20.34683908 -0.00331801 23.90439327 0.00098194 27.46203613 0.01031494 C32.02882879 0.02170954 36.59538638 0.01515036 41.16217041 0.00317001 C44.66566752 -0.0040471 48.16910865 -0.00176135 51.67260742 0.0034256 C53.35677111 0.00476251 55.04093984 0.00311293 56.72509766 -0.00153351 C59.07635012 -0.00659634 61.42721861 0.0011078 63.77844238 0.01226807 C64.82892761 0.00619537 64.82892761 0.00619537 65.90063477 0 C70.72178823 0.04252797 70.72178823 0.04252797 72.95031738 2.27105713 C73.15005472 4.97241036 73.23013311 7.56902924 73.21594238 10.27105713 C73.21785583 11.0625415 73.21976929 11.85402588 73.22174072 12.66949463 C73.22310256 14.34397703 73.2194062 16.01846998 73.21105957 17.69293213 C73.20035978 20.26088094 73.21095463 22.82813016 73.22375488 25.39605713 C73.22243329 27.02105868 73.21987089 28.64605979 73.21594238 30.27105713 C73.21999084 31.0419165 73.22403931 31.81277588 73.22821045 32.60699463 C73.1802387 38.04113581 73.1802387 38.04113581 70.95031738 40.27105713 C68.52201677 40.46920897 66.20777719 40.5438898 63.77844238 40.52984619 C63.04009155 40.53335083 62.30174072 40.53685547 61.54101562 40.54046631 C59.0940213 40.54928762 56.64731478 40.54343317 54.20031738 40.53668213 C52.50402775 40.53802867 50.8077385 40.5399691 49.1114502 40.54248047 C45.55379569 40.54543227 41.9962415 40.54113232 38.43859863 40.53179932 C33.87180598 40.52040472 29.30524838 40.52696389 24.73846436 40.53894424 C21.23496724 40.54616135 17.73152612 40.54387561 14.22802734 40.53868866 C12.54386365 40.53735175 10.85969492 40.53900133 9.17553711 40.54364777 C6.82428464 40.5487106 4.47341615 40.54100645 2.12219238 40.52984619 C1.4218689 40.53389465 0.72154541 40.53794312 0 40.54211426 C-4.82115346 40.49958628 -4.82115346 40.49958628 -7.04968262 38.27105713 C-7.24941995 35.5697039 -7.32949835 32.97308502 -7.31530762 30.27105713 C-7.31722107 29.47957275 -7.31913452 28.68808838 -7.32110596 27.87261963 C-7.32246779 26.19813723 -7.31877143 24.52364428 -7.3104248 22.84918213 C-7.29972502 20.28123332 -7.31031987 17.7139841 -7.32312012 15.14605713 C-7.32179852 13.52105558 -7.31923613 11.89605447 -7.31530762 10.27105713 C-7.31935608 9.50019775 -7.32340454 8.72933838 -7.32757568 7.93511963 C-7.2722108 1.66349842 -6.40659155 0.05651331 0 0 Z " fill="#4085F6" transform="translate(206.0496826171875,521.7289428710938)"/>
<path d="M0 0 C1.85202026 -0.00945648 1.85202026 -0.00945648 3.74145508 -0.019104 C5.09456525 -0.01552432 6.44767412 -0.01142238 7.80078125 -0.00683594 C9.18318754 -0.00818268 10.56559338 -0.01012329 11.94799805 -0.01263428 C14.84656276 -0.01558511 17.74500428 -0.0112893 20.64355469 -0.00195312 C24.36288762 0.00944152 28.08193193 0.00288181 31.80125427 -0.00909805 C34.65623152 -0.01631782 37.5111401 -0.01402822 40.36611938 -0.00884247 C41.73768142 -0.00750629 43.10924964 -0.0091526 44.48080444 -0.01380157 C46.39605595 -0.01886842 48.31132926 -0.00977925 50.2265625 0 C51.31751221 0.00159119 52.40846191 0.00318237 53.5324707 0.00482178 C56.11328125 0.25878906 56.11328125 0.25878906 58.11328125 2.25878906 C58.31301858 4.96014229 58.39309698 7.55676118 58.37890625 10.25878906 C58.3808197 11.05027344 58.38273315 11.84175781 58.38470459 12.65722656 C58.38606643 14.33170896 58.38237007 16.00620191 58.37402344 17.68066406 C58.36332365 20.24861287 58.3739185 22.81586209 58.38671875 25.38378906 C58.38539715 27.00879061 58.38283476 28.63379172 58.37890625 30.25878906 C58.38295471 31.02964844 58.38700317 31.80050781 58.39117432 32.59472656 C58.34320257 38.02886774 58.34320257 38.02886774 56.11328125 40.25878906 C53.5324707 40.51275635 53.5324707 40.51275635 50.2265625 40.51757812 C48.99188232 40.52388245 47.75720215 40.53018677 46.48510742 40.53668213 C45.13199725 40.53310245 43.77888838 40.52900051 42.42578125 40.52441406 C41.04337496 40.52576081 39.66096912 40.52770142 38.27856445 40.5302124 C35.37999974 40.53316324 32.48155822 40.52886742 29.58300781 40.51953125 C25.86367488 40.50813661 22.14463057 40.51469631 18.42530823 40.52667618 C15.57033098 40.53389594 12.7154224 40.53160634 9.86044312 40.52642059 C8.48888108 40.52508441 7.11731286 40.52673072 5.74575806 40.5313797 C3.83050655 40.53644654 1.91523324 40.52735737 0 40.51757812 C-1.09094971 40.51598694 -2.18189941 40.51439575 -3.3059082 40.51275635 C-5.88671875 40.25878906 -5.88671875 40.25878906 -7.88671875 38.25878906 C-8.08645608 35.55743583 -8.16653448 32.96081695 -8.15234375 30.25878906 C-8.1542572 29.46730469 -8.15617065 28.67582031 -8.15814209 27.86035156 C-8.15950393 26.18586916 -8.15580757 24.51137621 -8.14746094 22.83691406 C-8.13676115 20.26896525 -8.147356 17.70171603 -8.16015625 15.13378906 C-8.15883465 13.50878751 -8.15627226 11.8837864 -8.15234375 10.25878906 C-8.15639221 9.48792969 -8.16044067 8.71707031 -8.16461182 7.92285156 C-8.10378757 1.03280581 -6.70207672 0.0097752 0 0 Z " fill="#27C663" transform="translate(206.88671875,839.7412109375)"/>
<path d="M0 0 C4.95 0 9.9 0 15 0 C15 7.92 15 15.84 15 24 C10.05 24 5.1 24 0 24 C0 16.08 0 8.16 0 0 Z " fill="#E2E2E2" transform="translate(1663,301)"/>
<path d="M0 0 C3.33484448 2.46488505 4.81126715 3.86760291 5.5 8 C4.90534179 11.56794926 4.50352714 13.34474394 2 16 C-1.0842197 17.12909777 -3.74483245 17.47234075 -7 17 C-9.824184 15.30167313 -10.35794423 14.06517078 -12 11 C-12.14971147 6.65836732 -11.72194213 4.80444981 -8.8125 1.5625 C-5.43724821 -0.31263988 -3.7992366 -0.71235686 0 0 Z " fill="#100E14" transform="translate(358,715)"/>
<path d="M0 0 C0.66 0 1.32 0 2 0 C4.66666667 0 7.33333333 0 10 0 C10 0.99 10 1.98 10 3 C9.01 3.33 8.02 3.66 7 4 C6.67 6.64 6.34 9.28 6 12 C4.08458862 12.10841951 2.16740227 12.18578079 0.25 12.25 C-1.35101563 12.31960938 -1.35101563 12.31960938 -2.984375 12.390625 C-6 12 -6 12 -8.39453125 10.1796875 C-10 8 -10 8 -9.9375 4.875 C-8.19889195 -0.45673137 -4.97549958 -0.21172339 0 0 Z " fill="#DDD8CD" transform="translate(263,720)"/>
<path d="M0 0 C1.65 0 3.3 0 5 0 C6.80078125 2.1875 6.80078125 2.1875 8.3125 5 C8.82425781 5.928125 9.33601563 6.85625 9.86328125 7.8125 C10.23839844 8.534375 10.61351562 9.25625 11 10 C11.33 6.7 11.66 3.4 12 0 C12.99 0 13.98 0 15 0 C15 5.61 15 11.22 15 17 C13.68 17 12.36 17 11 17 C9.296875 14.8125 9.296875 14.8125 7.75 12 C7.22921875 11.071875 6.7084375 10.14375 6.171875 9.1875 C5.59179688 8.1046875 5.59179688 8.1046875 5 7 C4.67 10.3 4.34 13.6 4 17 C2.68 17 1.36 17 0 17 C0 11.39 0 5.78 0 0 Z " fill="#1B1110" transform="translate(396,715)"/>
<path d="M0 0 C1.32 0 2.64 0 4 0 C4 2.31 4 4.62 4 7 C4.94875 6.79375 5.8975 6.5875 6.875 6.375 C8.421875 6.189375 8.421875 6.189375 10 6 C12 8 12 8 12.3125 11.4375 C12 15 12 15 9 18 C6.03 18 3.06 18 0 18 C0 12.06 0 6.12 0 0 Z " fill="#160A1B" transform="translate(282,714)"/>
<path d="M0 0 C0.99 0 1.98 0 3 0 C3.33 2.31 3.66 4.62 4 7 C4.763125 6.773125 5.52625 6.54625 6.3125 6.3125 C9 6 9 6 10.875 7 C12.65206652 10.15922937 11.80842259 12.57975057 11 16 C10.34 16.66 9.68 17.32 9 18 C6.03 18 3.06 18 0 18 C0 12.06 0 6.12 0 0 Z " fill="#110D16" transform="translate(229,714)"/>
<path d="M0 0 C1.32 0 2.64 0 4 0 C4.33 1.98 4.66 3.96 5 6 C5.66 4.02 6.32 2.04 7 0 C8.65 0.33 10.3 0.66 12 1 C12 2.98 12 4.96 12 7 C12.66 7 13.32 7 14 7 C14 4.69 14 2.38 14 0 C15.32 0 16.64 0 18 0 C17.69106068 1.6256807 17.3777305 3.25052748 17.0625 4.875 C16.80146484 6.23238281 16.80146484 6.23238281 16.53515625 7.6171875 C16 10 16 10 15 12 C13.68 12 12.36 12 11 12 C10.34 10.02 9.68 8.04 9 6 C8.34 7.98 7.68 9.96 7 12 C5.68 12 4.36 12 3 12 C2.49166409 10.75336669 1.99368855 9.50250613 1.5 8.25 C1.2215625 7.55390625 0.943125 6.8578125 0.65625 6.140625 C0 4 0 4 0 0 Z " fill="#170F15" transform="translate(427,720)"/>
<path d="M0 0 C2 2 2 2 2.375 4.9375 C2 8 2 8 0.4375 9.9375 C-3.05130737 11.45826219 -5.36904394 10.94135898 -9 10 C-11.14762184 6.77856724 -11.561068 5.7404533 -11 2 C-7.75218562 -1.89737726 -4.62190328 -1.11268042 0 0 Z " fill="#191012" transform="translate(336,721)"/>
<path d="M0 0 C2 3 2 3 1.8125 6.5625 C1 10 1 10 -2 12 C-4.79523674 12.34940459 -6.3648354 12.37233787 -8.8125 10.9375 C-10.67036623 7.90624457 -10.37133265 5.46577141 -10 2 C-7.71139092 -2.30797003 -4.19123206 -1.06685907 0 0 Z " fill="#ABABB0" transform="translate(210,615)"/>
<path d="M0 0 C2 3 2 3 1.8125 6.5625 C1 10 1 10 -2 12 C-4.79523674 12.34940459 -6.3648354 12.37233787 -8.8125 10.9375 C-10.67036623 7.90624457 -10.37133265 5.46577141 -10 2 C-7.71139092 -2.30797003 -4.19123206 -1.06685907 0 0 Z " fill="#ABABB0" transform="translate(210,587)"/>
<path d="M0 0 C3 2 3 2 3.3984375 3.875 C3.39070313 4.57625 3.38296875 5.2775 3.375 6 C3.38273437 6.70125 3.39046875 7.4025 3.3984375 8.125 C3 10 3 10 0 12 C-3.12026907 12.32502803 -5.14747535 12.51151479 -7.875 10.875 C-9.52854531 8.11909116 -9.39365568 6.14924548 -9 3 C-6.78229215 -0.69617975 -4.0271794 -0.41949785 0 0 Z " fill="#0D090D" transform="translate(299,58)"/>
<path d="M0 0 C2.01822917 0.06510417 4.03645833 0.13020833 6.0546875 0.1953125 C6.0546875 1.5153125 6.0546875 2.8353125 6.0546875 4.1953125 C4.0746875 4.1953125 2.0946875 4.1953125 0.0546875 4.1953125 C-0.2753125 4.8553125 -0.6053125 5.5153125 -0.9453125 6.1953125 C0.4778125 6.6284375 0.4778125 6.6284375 1.9296875 7.0703125 C5.0546875 8.1953125 5.0546875 8.1953125 7.0546875 10.1953125 C6.8671875 12.6953125 6.8671875 12.6953125 6.0546875 15.1953125 C2.4105101 17.6247641 0.34227478 17.35710825 -3.9453125 17.1953125 C-4.2753125 15.5453125 -4.6053125 13.8953125 -4.9453125 12.1953125 C-2.6353125 12.5253125 -0.3253125 12.8553125 2.0546875 13.1953125 C2.3846875 12.5353125 2.7146875 11.8753125 3.0546875 11.1953125 C2.1059375 10.9065625 1.1571875 10.6178125 0.1796875 10.3203125 C-2.9453125 9.1953125 -2.9453125 9.1953125 -4.9453125 7.1953125 C-4.58410177 3.58320518 -4.17111606 0.41878675 0 0 Z " fill="#171419" transform="translate(204.9453125,714.8046875)"/>
<path d="M0 0 C-0.33 1.32 -0.66 2.64 -1 4 C-3.31 4.33 -5.62 4.66 -8 5 C-8.20970559 9.14093698 -8.20970559 9.14093698 -7 13 C-4.69 13 -2.38 13 0 13 C-0.33 14.32 -0.66 15.64 -1 17 C-5.29107165 17.4206933 -7.35134537 17.45543836 -10.9375 14.9375 C-13 12 -13 12 -13.625 8.5 C-13 5 -13 5 -11 2.0625 C-6.96968211 -0.70834355 -4.80160858 -0.40691598 0 0 Z " fill="#150C13" transform="translate(213,53)"/>
<path d="M0 0 C2.875 -0.125 2.875 -0.125 6 0 C8 2 8 2 8.1953125 4.3828125 C8.17210937 5.28773437 8.14890625 6.19265625 8.125 7.125 C8.10695313 8.03507812 8.08890625 8.94515625 8.0703125 9.8828125 C8.04710937 10.58148438 8.02390625 11.28015625 8 12 C6.54207116 12.05399736 5.08357288 12.09279177 3.625 12.125 C2.81289063 12.14820312 2.00078125 12.17140625 1.1640625 12.1953125 C-1 12 -1 12 -3 10 C-2.8125 8 -2.8125 8 -2 6 C-1.01 5.34 -0.02 4.68 1 4 C0.34 3.67 -0.32 3.34 -1 3 C-0.67 2.01 -0.34 1.02 0 0 Z " fill="#0A0917" transform="translate(270,58)"/>
<path d="M0 0 C1.32 0 2.64 0 4 0 C4 2.97 4 5.94 4 9 C4.99 8.67 5.98 8.34 7 8 C7.33 5.36 7.66 2.72 8 0 C9.32 0 10.64 0 12 0 C12 3.96 12 7.92 12 12 C10.39125 12.061875 8.7825 12.12375 7.125 12.1875 C5.76761719 12.23970703 5.76761719 12.23970703 4.3828125 12.29296875 C3.20332031 12.14794922 3.20332031 12.14794922 2 12 C-0.13586678 8.79619983 -0.23132175 7.98060033 -0.125 4.3125 C-0.10695313 3.50425781 -0.08890625 2.69601562 -0.0703125 1.86328125 C-0.04710937 1.24839844 -0.02390625 0.63351562 0 0 Z " fill="#1E1016" transform="translate(365,720)"/>
<path d="M0 0 C1.8125 1.25 1.8125 1.25 3 3 C3 4.32 3 5.64 3 7 C0.69 7.33 -1.62 7.66 -4 8 C-2.35 8.33 -0.7 8.66 1 9 C0.67 9.99 0.34 10.98 0 12 C-5.34965035 12.35664336 -5.34965035 12.35664336 -7.9375 10.9375 C-9.66665678 7.78433176 -8.8590699 5.37491745 -8 2 C-4.76746204 -0.15502531 -3.74849077 -0.46856135 0 0 Z " fill="#232021" transform="translate(504,720)"/>
<path d="M0 0 C1.8125 1.25 1.8125 1.25 3 3 C3 4.32 3 5.64 3 7 C0.69 7.33 -1.62 7.66 -4 8 C-2.35 8.33 -0.7 8.66 1 9 C0.67 9.99 0.34 10.98 0 12 C-5.34965035 12.35664336 -5.34965035 12.35664336 -7.9375 10.9375 C-9.66665678 7.78433176 -8.8590699 5.37491745 -8 2 C-4.76746204 -0.15502531 -3.74849077 -0.46856135 0 0 Z " fill="#232021" transform="translate(423,720)"/>
<path d="M0 0 C1.8125 1.25 1.8125 1.25 3 3 C3 4.32 3 5.64 3 7 C0.69 7.33 -1.62 7.66 -4 8 C-2.35 8.33 -0.7 8.66 1 9 C0.67 9.99 0.34 10.98 0 12 C-5.34965035 12.35664336 -5.34965035 12.35664336 -7.9375 10.9375 C-9.66665678 7.78433176 -8.8590699 5.37491745 -8 2 C-4.76746204 -0.15502531 -3.74849077 -0.46856135 0 0 Z " fill="#232021" transform="translate(305,720)"/>
<path d="M0 0 C5.75 -0.125 5.75 -0.125 8 1 C8 4.63 8 8.26 8 12 C1.06640625 12.09765625 1.06640625 12.09765625 -1 12 C-2 11 -2 11 -2.0625 8.4375 C-2.041875 7.633125 -2.02125 6.82875 -2 6 C-0.68 5.34 0.64 4.68 2 4 C1.01 4 0.02 4 -1 4 C-0.67 2.68 -0.34 1.36 0 0 Z " fill="#272121" transform="translate(217,58)"/>
<path d="M0 0 C1 1 1 1 1.0625 3.5625 C1.041875 4.366875 1.02125 5.17125 1 6 C-1.31 6.33 -3.62 6.66 -6 7 C-4.02 7 -2.04 7 0 7 C-0.33 8.32 -0.66 9.64 -1 11 C-6.4 11.36 -6.4 11.36 -8.875 9.875 C-10.52854531 7.11909116 -10.39365568 5.14924548 -10 2 C-7.64880534 -2.28747261 -4.22461819 -0.93880404 0 0 Z " fill="#1E1A1D" transform="translate(474,721)"/>
<path d="M0 0 C1.9375 0.8125 1.9375 0.8125 3.9375 2.8125 C4.31830215 6.31587981 4.33995078 8.17528626 2.4375 11.1875 C1.9425 11.72375 1.4475 12.26 0.9375 12.8125 C-1.5 12.4375 -1.5 12.4375 -4.0625 11.8125 C-5.58741998 8.76266004 -5.29812548 6.1701631 -5.0625 2.8125 C-3.51413427 0.33511483 -2.93686999 -0.26698818 0 0 Z " fill="#353135" transform="translate(285.0625,614.1875)"/>
<path d="M0 0 C1.9375 0.8125 1.9375 0.8125 3.9375 2.8125 C4.31830215 6.31587981 4.33995078 8.17528626 2.4375 11.1875 C1.9425 11.72375 1.4475 12.26 0.9375 12.8125 C-1.5 12.4375 -1.5 12.4375 -4.0625 11.8125 C-5.58741998 8.76266004 -5.29812548 6.1701631 -5.0625 2.8125 C-3.51413427 0.33511483 -2.93686999 -0.26698818 0 0 Z " fill="#353135" transform="translate(285.0625,586.1875)"/>
<path d="M0 0 C1.32 0 2.64 0 4 0 C4 2.97 4 5.94 4 9 C4.99 8.67 5.98 8.34 7 8 C7.33 5.36 7.66 2.72 8 0 C8.99 0 9.98 0 11 0 C11 3.96 11 7.92 11 12 C9.68 11.67 8.36 11.34 7 11 C6.13375 11.185625 5.2675 11.37125 4.375 11.5625 C3.59125 11.706875 2.8075 11.85125 2 12 C0 10 0 10 -0.1953125 7.6171875 C-0.17210937 6.71226562 -0.14890625 5.80734375 -0.125 4.875 C-0.10695312 3.96492187 -0.08890625 3.05484375 -0.0703125 2.1171875 C-0.04710937 1.41851563 -0.02390625 0.71984375 0 0 Z " fill="#121724" transform="translate(214,720)"/>
<path d="M0 0 C0.33 1.98 0.66 3.96 1 6 C1.66 6 2.32 6 3 6 C3.33 4.02 3.66 2.04 4 0 C4.66 0 5.32 0 6 0 C6 2.64 6 5.28 6 8 C3.69 8 1.38 8 -1 8 C-1 7.34 -1 6.68 -1 6 C-1.66 6 -2.32 6 -3 6 C-3 6.66 -3 7.32 -3 8 C-4.66611905 8.042721 -6.33382885 8.04063832 -8 8 C-9 7 -9 7 -9.0625 3.9375 C-9.041875 2.968125 -9.02125 1.99875 -9 1 C-6.04335481 -0.4783226 -3.25770263 -0.06032783 0 0 Z " fill="#4482F6" transform="translate(239,540)"/>
<path d="M0 0 C0.99 0 1.98 0 3 0 C3.33 2.64 3.66 5.28 4 8 C4.99 8 5.98 8 7 8 C7.33 5.36 7.66 2.72 8 0 C8.99 0 9.98 0 11 0 C11 3.96 11 7.92 11 12 C4.1640625 12.1953125 4.1640625 12.1953125 2 12 C0 10 0 10 -0.1953125 7.6171875 C-0.17210937 6.71226563 -0.14890625 5.80734375 -0.125 4.875 C-0.10695312 3.96492188 -0.08890625 3.05484375 -0.0703125 2.1171875 C-0.04710937 1.41851562 -0.02390625 0.71984375 0 0 Z " fill="#0D0809" transform="translate(247,58)"/>
<path d="M0 0 C0 1.32 0 2.64 0 4 C0.99 4 1.98 4 3 4 C3 4.99 3 5.98 3 7 C2.01 7 1.02 7 0 7 C0 8.98 0 10.96 0 13 C0.99 13 1.98 13 3 13 C3 13.99 3 14.98 3 16 C0.625 16.125 0.625 16.125 -2 16 C-4 14 -4 14 -4.125 10.375 C-4.08375 9.26125 -4.0425 8.1475 -4 7 C-4.66 7 -5.32 7 -6 7 C-6 6.01 -6 5.02 -6 4 C-5.34 4 -4.68 4 -4 4 C-4 3.01 -4 2.02 -4 1 C-2 0 -2 0 0 0 Z " fill="#201718" transform="translate(482,716)"/>
<path d="M0 0 C2.375 0.75 2.375 0.75 3.375 1.75 C3.63793056 5.78160191 3.66904844 7.30892734 1.375 10.75 C-1.595 10.255 -1.595 10.255 -4.625 9.75 C-5.95578101 3.33805513 -5.95578101 3.33805513 -4.5 0.75 C-2.625 -0.25 -2.625 -0.25 0 0 Z " fill="#E8EBE9" transform="translate(355.625,718.25)"/>
<path d="M0 0 C-0.33 1.32 -0.66 2.64 -1 4 C-1.99 4 -2.98 4 -4 4 C-2.68 4.66 -1.36 5.32 0 6 C0 7.65 0 9.3 0 11 C-2.70879335 12.35439668 -5.00933268 12.06501451 -8 12 C-8.33 10.68 -8.66 9.36 -9 8 C-7.35 8 -5.7 8 -4 8 C-5.65 7.01 -7.3 6.02 -9 5 C-8.625 3.0625 -8.625 3.0625 -8 1 C-5.29120665 -0.35439668 -2.99066732 -0.06501451 0 0 Z " fill="#1A1314" transform="translate(455,720)"/>
<path d="M0 0 C0 1.32 0 2.64 0 4 C0.66 4 1.32 4 2 4 C2 4.99 2 5.98 2 7 C1.34 7 0.68 7 0 7 C0 8.98 0 10.96 0 13 C0.66 13 1.32 13 2 13 C2 13.99 2 14.98 2 16 C-0.97 15.505 -0.97 15.505 -4 15 C-4 12.36 -4 9.72 -4 7 C-4.66 7 -5.32 7 -6 7 C-6 6.01 -6 5.02 -6 4 C-5.34 4 -4.68 4 -4 4 C-4 3.01 -4 2.02 -4 1 C-2 0 -2 0 0 0 Z " fill="#140E17" transform="translate(286,54)"/>
<path d="M0 0 C2.33294775 -0.04241723 4.66702567 -0.04092937 7 0 C8 1 8 1 8.0625 4.5625 C8.041875 5.696875 8.02125 6.83125 8 8 C6.35 8.33 4.7 8.66 3 9 C2.67 10.32 2.34 11.64 2 13 C1.34 13 0.68 13 0 13 C0 8.71 0 4.42 0 0 Z " fill="#ABA8A5" transform="translate(230,618)"/>
<path d="M0 0 C2.33294775 -0.04241723 4.66702567 -0.04092937 7 0 C8 1 8 1 8.0625 4.5625 C8.041875 5.696875 8.02125 6.83125 8 8 C6.35 8.33 4.7 8.66 3 9 C2.67 10.32 2.34 11.64 2 13 C1.34 13 0.68 13 0 13 C0 8.71 0 4.42 0 0 Z " fill="#ABA8A5" transform="translate(230,590)"/>
<path d="M0 0 C1.4540625 0.0309375 1.4540625 0.0309375 2.9375 0.0625 C2.9375 1.0525 2.9375 2.0425 2.9375 3.0625 C1.6175 3.3925 0.2975 3.7225 -1.0625 4.0625 C0.5875 5.0525 2.2375 6.0425 3.9375 7.0625 C3.5625 9 3.5625 9 2.9375 11.0625 C0.22870665 12.41689668 -2.07183268 12.12751451 -5.0625 12.0625 C-5.0625 11.0725 -5.0625 10.0825 -5.0625 9.0625 C-3.7425 8.7325 -2.4225 8.4025 -1.0625 8.0625 C-2.3825 7.4025 -3.7025 6.7425 -5.0625 6.0625 C-3.98897059 0.08140756 -3.98897059 0.08140756 0 0 Z " fill="#0E0C11" transform="translate(248.0625,719.9375)"/>
<path d="M0 0 C1.32 0 2.64 0 4 0 C4 5.94 4 11.88 4 18 C2.68 18 1.36 18 0 18 C0 12.06 0 6.12 0 0 Z " fill="#2D170A" transform="translate(261,52)"/>
<path d="M0 0 C0.66 0 1.32 0 2 0 C2 1.32 2 2.64 2 4 C2.99 4 3.98 4 5 4 C5 4.99 5 5.98 5 7 C4.01 7 3.02 7 2 7 C2 8.98 2 10.96 2 13 C2.99 13 3.98 13 5 13 C5 13.99 5 14.98 5 16 C3.33388095 16.042721 1.66617115 16.04063832 0 16 C-1 15 -1 15 -1.09765625 13.15234375 C-1.06510417 11.1015625 -1.03255208 9.05078125 -1 7 C-1.66 7 -2.32 7 -3 7 C-3 6.01 -3 5.02 -3 4 C-2.34 4 -1.68 4 -1 4 C-0.67 2.68 -0.34 1.36 0 0 Z " fill="#060713" transform="translate(489,716)"/>
<path d="M0 0 C0.66 0 1.32 0 2 0 C2 1.32 2 2.64 2 4 C2.99 4 3.98 4 5 4 C5 4.99 5 5.98 5 7 C4.01 7 3.02 7 2 7 C2 8.98 2 10.96 2 13 C2.99 13 3.98 13 5 13 C5 13.99 5 14.98 5 16 C3.33388095 16.042721 1.66617115 16.04063832 0 16 C-1 15 -1 15 -1.09765625 13.15234375 C-1.06510417 11.1015625 -1.03255208 9.05078125 -1 7 C-1.66 7 -2.32 7 -3 7 C-3 6.01 -3 5.02 -3 4 C-2.34 4 -1.68 4 -1 4 C-0.67 2.68 -0.34 1.36 0 0 Z " fill="#060713" transform="translate(319,716)"/>
<path d="M0 0 C0 0.99 0 1.98 0 3 C-1.65 3.33 -3.3 3.66 -5 4 C-5 5.32 -5 6.64 -5 8 C-3.35 8.33 -1.7 8.66 0 9 C-0.33 9.99 -0.66 10.98 -1 12 C-4.375 11.6875 -4.375 11.6875 -8 11 C-10 8 -10 8 -9.8125 4.9375 C-8.30831386 -0.50071142 -4.96325547 -0.22058913 0 0 Z " fill="#1C100C" transform="translate(263,720)"/>
<path d="M0 0 C0 0.99 0 1.98 0 3 C-1.32 3.33 -2.64 3.66 -4 4 C-4 5.32 -4 6.64 -4 8 C-2.68 8.33 -1.36 8.66 0 9 C0 9.99 0 10.98 0 12 C-5.4 12.36 -5.4 12.36 -7.875 10.875 C-9.52854531 8.11909116 -9.39365568 6.14924548 -9 3 C-6.77089201 -0.71517998 -4.03410755 -0.2689405 0 0 Z " fill="#111015" transform="translate(244,58)"/>
<path d="M0 0 C1.98 0 3.96 0 6 0 C6.66 0.66 7.32 1.32 8 2 C7.625 4.625 7.625 4.625 7 7 C5.68 7.33 4.36 7.66 3 8 C2.67 9.32 2.34 10.64 2 12 C1.34 12 0.68 12 0 12 C0 8.04 0 4.08 0 0 Z " fill="#2B2030" transform="translate(214,446)"/>
<path d="M0 0 C1.98 0 3.96 0 6 0 C6.66 0.66 7.32 1.32 8 2 C7.625 4.625 7.625 4.625 7 7 C5.68 7.33 4.36 7.66 3 8 C2.67 9.32 2.34 10.64 2 12 C1.34 12 0.68 12 0 12 C0 8.04 0 4.08 0 0 Z " fill="#2B2030" transform="translate(214,360)"/>
<path d="M0 0 C1.98 0 3.96 0 6 0 C6.66 0.66 7.32 1.32 8 2 C7.625 4.625 7.625 4.625 7 7 C5.68 7.33 4.36 7.66 3 8 C2.67 9.32 2.34 10.64 2 12 C1.34 12 0.68 12 0 12 C0 8.04 0 4.08 0 0 Z " fill="#2B2030" transform="translate(214,274)"/>
<path d="M0 0 C1.98 0 3.96 0 6 0 C6.66 0.66 7.32 1.32 8 2 C7.625 4.625 7.625 4.625 7 7 C5.68 7.33 4.36 7.66 3 8 C2.67 9.32 2.34 10.64 2 12 C1.34 12 0.68 12 0 12 C0 8.04 0 4.08 0 0 Z " fill="#2B2030" transform="translate(214,188)"/>
<path d="M0 0 C1.98 0 3.96 0 6 0 C6.66 0.66 7.32 1.32 8 2 C7.625 4.625 7.625 4.625 7 7 C5.68 7.33 4.36 7.66 3 8 C2.67 9.32 2.34 10.64 2 12 C1.34 12 0.68 12 0 12 C0 8.04 0 4.08 0 0 Z " fill="#2B2030" transform="translate(214,102)"/>
<path d="M0 0 C0.66 0 1.32 0 2 0 C2 1.32 2 2.64 2 4 C3.65 4.33 5.3 4.66 7 5 C7.04254356 6.99954746 7.04080783 9.00041636 7 11 C6.67 11.33 6.34 11.66 6 12 C4.02 12 2.04 12 0 12 C0 8.04 0 4.08 0 0 Z " fill="#E6F5CF" transform="translate(226,854)"/>
<path d="M0 0 C0.99 0 1.98 0 3 0 C3.185625 1.7015625 3.185625 1.7015625 3.375 3.4375 C3.684375 5.2009375 3.684375 5.2009375 4 7 C4.66 7.33 5.32 7.66 6 8 C5.34 8.66 4.68 9.32 4 10 C3.95834237 11.99956611 3.95834237 14.00043389 4 16 C3.67 16.66 3.34 17.32 3 18 C2.01 18 1.02 18 0 18 C0 12.06 0 6.12 0 0 Z " fill="#000003" transform="translate(229,714)"/>
<path d="M0 0 C2.64 0 5.28 0 8 0 C8 0.99 8 1.98 8 3 C7.01 3.33 6.02 3.66 5 4 C4.67 6.64 4.34 9.28 4 12 C2.68 12 1.36 12 0 12 C0 8.04 0 4.08 0 0 Z " fill="#0B1527" transform="translate(509,720)"/>
<path d="M0 0 C2.64 0 5.28 0 8 0 C8 0.99 8 1.98 8 3 C7.01 3.33 6.02 3.66 5 4 C4.67 6.64 4.34 9.28 4 12 C2.68 12 1.36 12 0 12 C0 8.04 0 4.08 0 0 Z " fill="#0B1527" transform="translate(380,720)"/>
<path d="M0 0 C2.64 0 5.28 0 8 0 C8 0.99 8 1.98 8 3 C7.01 3.33 6.02 3.66 5 4 C4.67 6.64 4.34 9.28 4 12 C2.68 12 1.36 12 0 12 C0 8.04 0 4.08 0 0 Z " fill="#150B1E" transform="translate(305,58)"/>
<path d="M0 0 C1 1 1 1 1.25 4.375 C1 8 1 8 -0.25 9.9375 C-2 11 -2 11 -6 11 C-6 10.01 -6 9.02 -6 8 C-5.01 7.67 -4.02 7.34 -3 7 C-3 5.68 -3 4.36 -3 3 C-4.32 3 -5.64 3 -7 3 C-7 2.01 -7 1.02 -7 0 C-4.31633121 -1.3418344 -2.84719317 -0.73004953 0 0 Z " fill="#08080F" transform="translate(293,721)"/>
<path d="M0 0 C1.81242052 -0.02687279 3.62495233 -0.04633715 5.4375 -0.0625 C6.44683594 -0.07410156 7.45617187 -0.08570313 8.49609375 -0.09765625 C11 0 11 0 12 1 C12.04092937 3.33297433 12.04241723 5.66705225 12 8 C11.34 8 10.68 8 10 8 C10 5.69 10 3.38 10 1 C9.01 1.495 9.01 1.495 8 2 C7.34227572 5.02934491 7.34227572 5.02934491 7 8 C6.34 8 5.68 8 5 8 C5 5.69 5 3.38 5 1 C4.01 1.495 4.01 1.495 3 2 C2.34227572 5.02934491 2.34227572 5.02934491 2 8 C1.34 8 0.68 8 0 8 C0 5.36 0 2.72 0 0 Z " fill="#DDF6D7" transform="translate(235,858)"/>
<path d="M0 0 C0.99 0 1.98 0 3 0 C3 5.94 3 11.88 3 18 C2.01 18 1.02 18 0 18 C0 12.06 0 6.12 0 0 Z " fill="#000000" transform="translate(458,714)"/>
<path d="M0 0 C0.99 0 1.98 0 3 0 C3 5.94 3 11.88 3 18 C2.01 18 1.02 18 0 18 C0 12.06 0 6.12 0 0 Z " fill="#000000" transform="translate(229,52)"/>
<path d="M0 0 C2.625 0.375 2.625 0.375 5 1 C5.625 3.375 5.625 3.375 6 6 C5.34 6.66 4.68 7.32 4 8 C1.375 7.625 1.375 7.625 -1 7 C-1.625 4.625 -1.625 4.625 -2 2 C-1.34 1.34 -0.68 0.68 0 0 Z " fill="#31161A" transform="translate(252,764)"/>
<path d="M0 0 C1.32 0 2.64 0 4 0 C4 3.96 4 7.92 4 12 C2.35 11.67 0.7 11.34 -1 11 C-0.67 7.37 -0.34 3.74 0 0 Z " fill="#150E23" transform="translate(373,720)"/>
<path d="M0 0 C2.31 0 4.62 0 7 0 C7 0.66 7 1.32 7 2 C5.35 2 3.7 2 2 2 C2 2.99 2 3.98 2 5 C3.32 5 4.64 5 6 5 C6 5.66 6 6.32 6 7 C4.68 7 3.36 7 2 7 C2 7.66 2 8.32 2 9 C3.65 9 5.3 9 7 9 C7 9.66 7 10.32 7 11 C4.69 11 2.38 11 0 11 C0 7.37 0 3.74 0 0 Z " fill="#42372E" transform="translate(200,761)"/>
<path d="M0 0 C0.66 0 1.32 0 2 0 C3.125 7.625 3.125 7.625 2 11 C1.34 11 0.68 11 0 11 C0 10.34 0 9.68 0 9 C-1.65 9 -3.3 9 -5 9 C-4.42676569 5.13066838 -2.61046448 2.84777943 0 0 Z " fill="#111F39" transform="translate(248,357)"/>
<path d="M0 0 C1.32 0 2.64 0 4 0 C4 3.96 4 7.92 4 12 C2.68 12 1.36 12 0 12 C0 8.04 0 4.08 0 0 Z " fill="#160B23" transform="translate(275,720)"/>
<path d="M0 0 C2.31 0 4.62 0 7 0 C7 0.99 7 1.98 7 3 C6.01 3.33 5.02 3.66 4 4 C3.67 6.64 3.34 9.28 3 12 C2.01 12 1.02 12 0 12 C0 8.04 0 4.08 0 0 Z " fill="#020202" transform="translate(266,720)"/>
<path d="M0 0 C2.30163882 3.45245824 2.34490322 4.94738713 2 9 C1.34 9.66 0.68 10.32 0 11 C0 10.34 0 9.68 0 9 C-1.65 8.67 -3.3 8.34 -5 8 C-4.67 6.35 -4.34 4.7 -4 3 C-2.68 3 -1.36 3 0 3 C0 2.01 0 1.02 0 0 Z " fill="#DCE9F2" transform="translate(244,58)"/>
<path d="M0 0 C1.98 0 3.96 0 6 0 C6 0.66 6 1.32 6 2 C4.68 2 3.36 2 2 2 C2 2.66 2 3.32 2 4 C3.32 4.33 4.64 4.66 6 5 C6 6.65 6 8.3 6 10 C3.69 10.33 1.38 10.66 -1 11 C-1 10.34 -1 9.68 -1 9 C0.65 9 2.3 9 4 9 C3.67 8.01 3.34 7.02 3 6 C2.01 5.67 1.02 5.34 0 5 C0 3.35 0 1.7 0 0 Z " fill="#403437" transform="translate(244,443)"/>
<path d="M0 0 C1.65 0 3.3 0 5 0 C5.6875 2.3125 5.6875 2.3125 6 5 C4.5625 6.8125 4.5625 6.8125 3 8 C3.99 8.33 4.98 8.66 6 9 C6 9.66 6 10.32 6 11 C3.69 11 1.38 11 -1 11 C-0.6875 9.125 -0.6875 9.125 0 7 C0.99 6.34 1.98 5.68 3 5 C3.33 4.01 3.66 3.02 4 2 C2.68 2 1.36 2 0 2 C0 1.34 0 0.68 0 0 Z " fill="#312C39" transform="translate(244,185)"/>
<path d="M0 0 C0.33 0 0.66 0 1 0 C1 5.94 1 11.88 1 18 C-2 16 -2 16 -2.4375 14 C-2.81270124 11.7925291 -2.81270124 11.7925291 -5.0625 10.75 C-5.701875 10.5025 -6.34125 10.255 -7 10 C-6.38125 9.87625 -5.7625 9.7525 -5.125 9.625 C-2.80879168 9.12802644 -2.80879168 9.12802644 -1 7 C-0.59952556 4.67724823 -0.2602896 2.34260643 0 0 Z " fill="#D5BE99" transform="translate(457,714)"/>
<path d="M0 0 C0.99 0 1.98 0 3 0 C3 3.96 3 7.92 3 12 C2.01 12 1.02 12 0 12 C0 11.34 0 10.68 0 10 C-0.66 9.67 -1.32 9.34 -2 9 C-1.67 8.67 -1.34 8.34 -1 8 C-0.76924918 6.65252916 -0.58846937 5.29622435 -0.4375 3.9375 C-0.293125 2.638125 -0.14875 1.33875 0 0 Z " fill="#010000" transform="translate(255,58)"/>
<path d="M0 0 C6.15234375 -0.09765625 6.15234375 -0.09765625 8 0 C9 1 9 1 9.0625 4.5625 C9.041875 5.696875 9.02125 6.83125 9 8 C8.34 8 7.68 8 7 8 C7 6.02 7 4.04 7 2 C6.01 2 5.02 2 4 2 C4 3.98 4 5.96 4 8 C3.34 8 2.68 8 2 8 C1.34 5.36 0.68 2.72 0 0 Z " fill="#2F1934" transform="translate(291,764)"/>
<path d="M0 0 C0.99 0 1.98 0 3 0 C3 3.96 3 7.92 3 12 C2.01 12 1.02 12 0 12 C-1.53166168 7.91556885 -0.63081652 4.20544343 0 0 Z " fill="#020000" transform="translate(222,720)"/>
<path d="M0 0 C1.67542976 0.28604898 3.34385343 0.61781233 5 1 C5 3.31 5 5.62 5 8 C3.02 8 1.04 8 -1 8 C-0.125 3.125 -0.125 3.125 1 2 C0.34 1.67 -0.32 1.34 -1 1 C-0.67 0.67 -0.34 0.34 0 0 Z " fill="#C4DDFC" transform="translate(219,540)"/>
<path d="M0 0 C1.2065625 0.0309375 1.2065625 0.0309375 2.4375 0.0625 C2.7675 1.3825 3.0975 2.7025 3.4375 4.0625 C1.7875 4.3925 0.1375 4.7225 -1.5625 5.0625 C-1.5625 5.7225 -1.5625 6.3825 -1.5625 7.0625 C-0.2425 6.7325 1.0775 6.4025 2.4375 6.0625 C2.4375 6.7225 2.4375 7.3825 2.4375 8.0625 C0.77138095 8.105221 -0.89632885 8.10313832 -2.5625 8.0625 C-3.5625 7.0625 -3.5625 7.0625 -3.6875 4.0625 C-3.52180824 0.08589776 -3.52180824 0.08589776 0 0 Z " fill="#CDDDFC" transform="translate(267.5625,539.9375)"/>
<path d="M0 0 C0 1.98 0 3.96 0 6 C-2.875 6.125 -2.875 6.125 -6 6 C-6.66 5.34 -7.32 4.68 -8 4 C-7.67 3.01 -7.34 2.02 -7 1 C-4 0 -4 0 0 0 Z " fill="#595048" transform="translate(275,64)"/>
<path d="M0 0 C0.66 0 1.32 0 2 0 C2 1.98 2 3.96 2 6 C2.99 6 3.98 6 5 6 C5 4.02 5 2.04 5 0 C5.66 0 6.32 0 7 0 C7 2.64 7 5.28 7 8 C5.00045254 8.04254356 2.99958364 8.04080783 1 8 C0 7 0 7 -0.0625 3.4375 C-0.041875 2.303125 -0.02125 1.16875 0 0 Z " fill="#302039" transform="translate(260,764)"/>
<path d="M0 0 C0.66 0 1.32 0 2 0 C2.33 1.98 2.66 3.96 3 6 C3.66 6 4.32 6 5 6 C5.33 4.02 5.66 2.04 6 0 C6.66 0 7.32 0 8 0 C8 2.64 8 5.28 8 8 C5.69 8 3.38 8 1 8 C-0.35439668 5.29120665 -0.06501451 2.99066732 0 0 Z " fill="#D8E2FB" transform="translate(237,540)"/>
<path d="M0 0 C0.66 0 1.32 0 2 0 C2 1.98 2 3.96 2 6 C2.99 6 3.98 6 5 6 C5 4.02 5 2.04 5 0 C5.66 0 6.32 0 7 0 C7 2.64 7 5.28 7 8 C5.00045254 8.04254356 2.99958364 8.04080783 1 8 C0 7 0 7 -0.0625 3.4375 C-0.041875 2.303125 -0.02125 1.16875 0 0 Z " fill="#302039" transform="translate(224,446)"/>
<path d="M0 0 C1.99954746 -0.04254356 4.00041636 -0.04080783 6 0 C7 1 7 1 7.0625 4.5625 C7.041875 5.696875 7.02125 6.83125 7 8 C6.34 8 5.68 8 5 8 C5 6.02 5 4.04 5 2 C4.01 2 3.02 2 2 2 C2 3.98 2 5.96 2 8 C1.34 8 0.68 8 0 8 C0 5.36 0 2.72 0 0 Z " fill="#3B1F2E" transform="translate(205,446)"/>
<path d="M0 0 C0.66 0 1.32 0 2 0 C2 1.98 2 3.96 2 6 C2.99 6 3.98 6 5 6 C5 4.02 5 2.04 5 0 C5.66 0 6.32 0 7 0 C7 2.64 7 5.28 7 8 C5.00045254 8.04254356 2.99958364 8.04080783 1 8 C0 7 0 7 -0.0625 3.4375 C-0.041875 2.303125 -0.02125 1.16875 0 0 Z " fill="#302039" transform="translate(224,360)"/>
<path d="M0 0 C1.99954746 -0.04254356 4.00041636 -0.04080783 6 0 C7 1 7 1 7.0625 4.5625 C7.041875 5.696875 7.02125 6.83125 7 8 C6.34 8 5.68 8 5 8 C5 6.02 5 4.04 5 2 C4.01 2 3.02 2 2 2 C2 3.98 2 5.96 2 8 C1.34 8 0.68 8 0 8 C0 5.36 0 2.72 0 0 Z " fill="#3B1F2E" transform="translate(205,360)"/>
<path d="M0 0 C0.66 0 1.32 0 2 0 C2 1.98 2 3.96 2 6 C2.99 6 3.98 6 5 6 C5 4.02 5 2.04 5 0 C5.66 0 6.32 0 7 0 C7 2.64 7 5.28 7 8 C5.00045254 8.04254356 2.99958364 8.04080783 1 8 C0 7 0 7 -0.0625 3.4375 C-0.041875 2.303125 -0.02125 1.16875 0 0 Z " fill="#302039" transform="translate(224,274)"/>
<path d="M0 0 C1.99954746 -0.04254356 4.00041636 -0.04080783 6 0 C7 1 7 1 7.0625 4.5625 C7.041875 5.696875 7.02125 6.83125 7 8 C6.34 8 5.68 8 5 8 C5 6.02 5 4.04 5 2 C4.01 2 3.02 2 2 2 C2 3.98 2 5.96 2 8 C1.34 8 0.68 8 0 8 C0 5.36 0 2.72 0 0 Z " fill="#3B1F2E" transform="translate(205,274)"/>
<path d="M0 0 C0.66 0 1.32 0 2 0 C2 1.98 2 3.96 2 6 C2.99 6 3.98 6 5 6 C5 4.02 5 2.04 5 0 C5.66 0 6.32 0 7 0 C7 2.64 7 5.28 7 8 C5.00045254 8.04254356 2.99958364 8.04080783 1 8 C0 7 0 7 -0.0625 3.4375 C-0.041875 2.303125 -0.02125 1.16875 0 0 Z " fill="#302039" transform="translate(224,188)"/>
<path d="M0 0 C1.99954746 -0.04254356 4.00041636 -0.04080783 6 0 C7 1 7 1 7.0625 4.5625 C7.041875 5.696875 7.02125 6.83125 7 8 C6.34 8 5.68 8 5 8 C5 6.02 5 4.04 5 2 C4.01 2 3.02 2 2 2 C2 3.98 2 5.96 2 8 C1.34 8 0.68 8 0 8 C0 5.36 0 2.72 0 0 Z " fill="#3B1F2E" transform="translate(205,188)"/>
<path d="M0 0 C0.66 0 1.32 0 2 0 C2 1.98 2 3.96 2 6 C2.99 6 3.98 6 5 6 C5 4.02 5 2.04 5 0 C5.66 0 6.32 0 7 0 C7 2.64 7 5.28 7 8 C5.00045254 8.04254356 2.99958364 8.04080783 1 8 C0 7 0 7 -0.0625 3.4375 C-0.041875 2.303125 -0.02125 1.16875 0 0 Z " fill="#302039" transform="translate(224,102)"/>
<path d="M0 0 C1.99954746 -0.04254356 4.00041636 -0.04080783 6 0 C7 1 7 1 7.0625 4.5625 C7.041875 5.696875 7.02125 6.83125 7 8 C6.34 8 5.68 8 5 8 C5 6.02 5 4.04 5 2 C4.01 2 3.02 2 2 2 C2 3.98 2 5.96 2 8 C1.34 8 0.68 8 0 8 C0 5.36 0 2.72 0 0 Z " fill="#3B1F2E" transform="translate(205,102)"/>
<path d="M0 0 C0.66 0 1.32 0 2 0 C2.66 0.99 3.32 1.98 4 3 C4.33 2.01 4.66 1.02 5 0 C5.66 0 6.32 0 7 0 C6.60304363 1.62992692 6.18167507 3.25392235 5.75 4.875 C5.51796875 5.77992188 5.2859375 6.68484375 5.046875 7.6171875 C4 10 4 10 1.890625 11.3203125 C0.95476562 11.65675781 0.95476562 11.65675781 0 12 C0.185625 10.948125 0.37125 9.89625 0.5625 8.8125 C0.95079331 5.42880118 0.88247485 3.23574112 0 0 Z " fill="#39262F" transform="translate(242,764)"/>
<path d="M0 0 C2.625 0.375 2.625 0.375 5 1 C5 1.99 5 2.98 5 4 C3.35 4 1.7 4 0 4 C0.95865509 6.33075929 0.95865509 6.33075929 4 8 C2.35 7.67 0.7 7.34 -1 7 C-1.625 4.625 -1.625 4.625 -2 2 C-1.34 1.34 -0.68 0.68 0 0 Z " fill="#3C3136" transform="translate(281,764)"/>
<path d="M0 0 C2.625 0.375 2.625 0.375 5 1 C5 1.99 5 2.98 5 4 C3.35 4 1.7 4 0 4 C0.95865509 6.33075929 0.95865509 6.33075929 4 8 C2.35 7.67 0.7 7.34 -1 7 C-1.625 4.625 -1.625 4.625 -2 2 C-1.34 1.34 -0.68 0.68 0 0 Z " fill="#3C3136" transform="translate(225,764)"/>
<path d="M0 0 C0.99 0 1.98 0 3 0 C3 2.97 3 5.94 3 9 C1.68 8.67 0.36 8.34 -1 8 C-1.04241723 5.66705225 -1.04092937 3.33297433 -1 1 C-0.67 0.67 -0.34 0.34 0 0 Z " fill="#DFF0F6" transform="translate(283,616)"/>
<path d="M0 0 C0.99 0 1.98 0 3 0 C3 2.97 3 5.94 3 9 C1.68 8.67 0.36 8.34 -1 8 C-1.04241723 5.66705225 -1.04092937 3.33297433 -1 1 C-0.67 0.67 -0.34 0.34 0 0 Z " fill="#DFF0F6" transform="translate(283,588)"/>
<path d="M0 0 C1.65 0.33 3.3 0.66 5 1 C4.67 2.65 4.34 4.3 4 6 C2.35 5.67 0.7 5.34 -1 5 C-0.67 3.35 -0.34 1.7 0 0 Z " fill="#D5DDDD" transform="translate(294,61)"/>
<path d="M0 0 C1.99954746 -0.04254356 4.00041636 -0.04080783 6 0 C7 1 7 1 7.0625 4.5625 C7.041875 5.696875 7.02125 6.83125 7 8 C6.34 8 5.68 8 5 8 C5 6.02 5 4.04 5 2 C3.68 2 2.36 2 1 2 C1 3.98 1 5.96 1 8 C0.67 8 0.34 8 0 8 C0 5.36 0 2.72 0 0 Z " fill="#1B293E" transform="translate(209,764)"/>
<path d="M0 0 C0.33 0 0.66 0 1 0 C1.33 1.98 1.66 3.96 2 6 C2.66 6 3.32 6 4 6 C4.33 4.02 4.66 2.04 5 0 C5.66 0 6.32 0 7 0 C7 2.64 7 5.28 7 8 C5.00045254 8.04254356 2.99958364 8.04080783 1 8 C0 7 0 7 -0.0625 3.4375 C-0.041875 2.303125 -0.02125 1.16875 0 0 Z " fill="#E7F6C4" transform="translate(217,858)"/>
<path d="M0 0 C1.98 0.495 1.98 0.495 4 1 C3.01 1.495 3.01 1.495 2 2 C1.83322718 5.41656024 1.83322718 5.41656024 2 9 C2.66 9.66 3.32 10.32 4 11 C2.68 11 1.36 11 0 11 C-1.49297212 8.01405576 -1.11755228 5.29146376 -1 2 C-0.67 1.34 -0.34 0.68 0 0 Z " fill="#3A1E1B" transform="translate(281,615)"/>
<path d="M0 0 C0.99 0.33 1.98 0.66 3 1 C3.08159574 5.16138263 2.98248524 8.9472484 2 13 C1.34 13 0.68 13 0 13 C0 8.71 0 4.42 0 0 Z " fill="#554F4D" transform="translate(230,618)"/>
<path d="M0 0 C1.98 0.495 1.98 0.495 4 1 C3.01 1.495 3.01 1.495 2 2 C1.83322718 5.41656024 1.83322718 5.41656024 2 9 C2.66 9.66 3.32 10.32 4 11 C2.68 11 1.36 11 0 11 C-1.49297212 8.01405576 -1.11755228 5.29146376 -1 2 C-0.67 1.34 -0.34 0.68 0 0 Z " fill="#3A1E1B" transform="translate(281,587)"/>
<path d="M0 0 C0.99 0.33 1.98 0.66 3 1 C3.08159574 5.16138263 2.98248524 8.9472484 2 13 C1.34 13 0.68 13 0 13 C0 8.71 0 4.42 0 0 Z " fill="#554F4D" transform="translate(230,590)"/>
<path d="M0 0 C1.66611905 -0.042721 3.33382885 -0.04063832 5 0 C6 1 6 1 6.0625 4.5625 C6.041875 5.696875 6.02125 6.83125 6 8 C4.02 8 2.04 8 0 8 C1.32 6.68 2.64 5.36 4 4 C3.01 3.67 2.02 3.34 1 3 C1.99 3 2.98 3 4 3 C4 2.34 4 1.68 4 1 C2.68 1.33 1.36 1.66 0 2 C0 1.34 0 0.68 0 0 Z " fill="#E8ECFC" transform="translate(251,540)"/>
<path d="M0 0 C0.66 0 1.32 0 2 0 C2 0.66 2 1.32 2 2 C2.66 2.33 3.32 2.66 4 3 C3.34 3 2.68 3 2 3 C2 4.65 2 6.3 2 8 C2.66 8 3.32 8 4 8 C4 8.66 4 9.32 4 10 C2.68 9.67 1.36 9.34 0 9 C-1.125 2.25 -1.125 2.25 0 0 Z " fill="#391B2D" transform="translate(218,762)"/>
<path d="M0 0 C1.32 0 2.64 0 4 0 C3.47731534 2.76276177 2.89130413 5.3260876 2 8 C1.01 8.33 0.02 8.66 -1 9 C-0.67 6.03 -0.34 3.06 0 0 Z " fill="#2A1E1C" transform="translate(441,720)"/>
<path d="M0 0 C1.98 0.495 1.98 0.495 4 1 C3.67 2.65 3.34 4.3 3 6 C1.68 5.67 0.36 5.34 -1 5 C-0.67 3.35 -0.34 1.7 0 0 Z " fill="#EBF9F9" transform="translate(330,723)"/>
<path d="M0 0 C1.98 0.495 1.98 0.495 4 1 C3.67 2.65 3.34 4.3 3 6 C1.68 5.67 0.36 5.34 -1 5 C-0.67 3.35 -0.34 1.7 0 0 Z " fill="#F3E8D6" transform="translate(287,723)"/>
<path d="M0 0 C1.98 0.495 1.98 0.495 4 1 C3.67 2.65 3.34 4.3 3 6 C1.68 5.67 0.36 5.34 -1 5 C-0.67 3.35 -0.34 1.7 0 0 Z " fill="#DFEFF0" transform="translate(233,723)"/>
<path d="M0 0 C0.99 0.33 1.98 0.66 3 1 C2.67 4.63 2.34 8.26 2 12 C1.34 12 0.68 12 0 12 C0 8.04 0 4.08 0 0 Z " fill="#411622" transform="translate(214,446)"/>
<path d="M0 0 C0.99 0.33 1.98 0.66 3 1 C2.67 4.63 2.34 8.26 2 12 C1.34 12 0.68 12 0 12 C0 8.04 0 4.08 0 0 Z " fill="#411622" transform="translate(214,360)"/>
<path d="M0 0 C0.99 0.33 1.98 0.66 3 1 C2.67 4.63 2.34 8.26 2 12 C1.34 12 0.68 12 0 12 C0 8.04 0 4.08 0 0 Z " fill="#411622" transform="translate(214,274)"/>
<path d="M0 0 C0.99 0.33 1.98 0.66 3 1 C2.67 4.63 2.34 8.26 2 12 C1.34 12 0.68 12 0 12 C0 8.04 0 4.08 0 0 Z " fill="#411622" transform="translate(214,188)"/>
<path d="M0 0 C0.99 0.33 1.98 0.66 3 1 C2.67 4.63 2.34 8.26 2 12 C1.34 12 0.68 12 0 12 C0 8.04 0 4.08 0 0 Z " fill="#411622" transform="translate(214,102)"/>
<path d="M0 0 C0 3.63 0 7.26 0 11 C-0.66 11 -1.32 11 -2 11 C-2 8.36 -2 5.72 -2 3 C-2.66 3 -3.32 3 -4 3 C-4 2.34 -4 1.68 -4 1 C-2 0 -2 0 0 0 Z " fill="#522D1E" transform="translate(247,99)"/>
<path d="M0 0 C0.66 0 1.32 0 2 0 C2 0.66 2 1.32 2 2 C2.66 2.33 3.32 2.66 4 3 C3.34 3 2.68 3 2 3 C2 4.98 2 6.96 2 9 C2.66 9.33 3.32 9.66 4 10 C2.68 9.67 1.36 9.34 0 9 C-1.125 2.25 -1.125 2.25 0 0 Z " fill="#E4F7DB" transform="translate(253,856)"/>
<path d="M0 0 C1.32 0 2.64 0 4 0 C4 1.98 4 3.96 4 6 C2.68 6 1.36 6 0 6 C0 4.02 0 2.04 0 0 Z " fill="#DEF2FA" transform="translate(491,723)"/>
<path d="M0 0 C1.32 0 2.64 0 4 0 C4 1.98 4 3.96 4 6 C2.68 6 1.36 6 0 6 C0 4.02 0 2.04 0 0 Z " fill="#DEF2FA" transform="translate(321,723)"/>
<path d="M0 0 C0.66 0 1.32 0 2 0 C2 0.66 2 1.32 2 2 C2.66 2.33 3.32 2.66 4 3 C3.34 3 2.68 3 2 3 C2 4.98 2 6.96 2 9 C2.66 9.33 3.32 9.66 4 10 C2.68 9.67 1.36 9.34 0 9 C-1.125 2.25 -1.125 2.25 0 0 Z " fill="#E7EFFC" transform="translate(259,538)"/>
<path d="M0 0 C-0.33 0.66 -0.66 1.32 -1 2 C-1.99 2.33 -2.98 2.66 -4 3 C-3.67 3.99 -3.34 4.98 -3 6 C-2.01 6 -1.02 6 0 6 C0 6.66 0 7.32 0 8 C-1.66611905 8.042721 -3.33382885 8.04063832 -5 8 C-6 7 -6 7 -6.0625 3.9375 C-6.041875 2.968125 -6.02125 1.99875 -6 1 C-4 0 -4 0 0 0 Z " fill="#E0EDFC" transform="translate(236,540)"/>
<path d="M0 0 C0.33 0 0.66 0 1 0 C1 2.64 1 5.28 1 8 C-1.31 7.34 -3.62 6.68 -6 6 C-6 5.34 -6 4.68 -6 4 C-4.35 3.67 -2.7 3.34 -1 3 C-0.67 2.01 -0.34 1.02 0 0 Z " fill="#E8D1B1" transform="translate(208,764)"/>
<path d="M0 0 C1.32 0.33 2.64 0.66 4 1 C3.67 2.65 3.34 4.3 3 6 C2.01 6 1.02 6 0 6 C0 4.02 0 2.04 0 0 Z " fill="#30CB7A" transform="translate(228,859)"/>
<path d="M0 0 C1.98 0 3.96 0 6 0 C6 0.66 6 1.32 6 2 C4.68 2 3.36 2 2 2 C2 2.66 2 3.32 2 4 C2.99 4.33 3.98 4.66 5 5 C3.35 5 1.7 5 0 5 C0 3.35 0 1.7 0 0 Z " fill="#292A3D" transform="translate(244,443)"/>
<path d="M0 0 C0.33 0 0.66 0 1 0 C1 1.65 1 3.3 1 5 C0.01 5.495 0.01 5.495 -1 6 C-3.125 5.0625 -3.125 5.0625 -5 4 C-5 3.34 -5 2.68 -5 2 C-3.35 2 -1.7 2 0 2 C0 1.34 0 0.68 0 0 Z " fill="#BDD3E2" transform="translate(286,766)"/>
<path d="M0 0 C0.33 0 0.66 0 1 0 C1 1.65 1 3.3 1 5 C0.01 5.495 0.01 5.495 -1 6 C-3.125 5.0625 -3.125 5.0625 -5 4 C-5 3.34 -5 2.68 -5 2 C-3.35 2 -1.7 2 0 2 C0 1.34 0 0.68 0 0 Z " fill="#BDD3E2" transform="translate(230,766)"/>
<path d="M0 0 C1.65 0 3.3 0 5 0 C4.34 0.66 3.68 1.32 3 2 C2.60235737 3.98821313 2.26224651 5.98944339 2 8 C1.34 8 0.68 8 0 8 C0 5.36 0 2.72 0 0 Z " fill="#3F1E2D" transform="translate(269,764)"/>
<path d="M0 0 C0.99 0.33 1.98 0.66 3 1 C2.67 2.65 2.34 4.3 2 6 C1.01 5.67 0.02 5.34 -1 5 C-0.67 3.35 -0.34 1.7 0 0 Z " fill="#D5E5E4" transform="translate(253,765)"/>
<path d="M0 0 C1.65 0 3.3 0 5 0 C4.34 0.66 3.68 1.32 3 2 C2.60235737 3.98821313 2.26224651 5.98944339 2 8 C1.34 8 0.68 8 0 8 C0 5.36 0 2.72 0 0 Z " fill="#2C1C40" transform="translate(232,764)"/>
<path d="M0 0 C2.31 0 4.62 0 7 0 C7 1.98 7 3.96 7 6 C6.5875 5.54625 6.175 5.0925 5.75 4.625 C3.93591905 2.94049626 2.24714373 2.00734029 0 1 C0 0.67 0 0.34 0 0 Z " fill="#CEE0EC" transform="translate(246,723)"/>
<path d="M0 0 C1.32 0 2.64 0 4 0 C3.625 2.4375 3.625 2.4375 3 5 C2.01 5.495 2.01 5.495 1 6 C0.67 4.02 0.34 2.04 0 0 Z " fill="#231C25" transform="translate(427,720)"/>
<path d="M0 0 C0.66 0 1.32 0 2 0 C2.33 0.99 2.66 1.98 3 3 C2.34 3 1.68 3 1 3 C1.66 5.31 2.32 7.62 3 10 C2.01 10 1.02 10 0 10 C0 7.69 0 5.38 0 3 C-0.66 2.67 -1.32 2.34 -2 2 C-1.34 2 -0.68 2 0 2 C0 1.34 0 0.68 0 0 Z " fill="#1E1D1F" transform="translate(234,444)"/>
<path d="M0 0 C0.5534764 2.07553648 1 3.84365964 1 6 C-0.65 6 -2.3 6 -4 6 C-3.6875 4.125 -3.6875 4.125 -3 2 C-2.01 1.34 -1.02 0.68 0 0 Z " fill="#807B74" transform="translate(247,360)"/>
<path d="M0 0 C0.66 0 1.32 0 2 0 C2.33 0.99 2.66 1.98 3 3 C2.34 3 1.68 3 1 3 C1.66 5.31 2.32 7.62 3 10 C2.01 10 1.02 10 0 10 C0 7.69 0 5.38 0 3 C-0.66 2.67 -1.32 2.34 -2 2 C-1.34 2 -0.68 2 0 2 C0 1.34 0 0.68 0 0 Z " fill="#1E1D1F" transform="translate(234,358)"/>
<path d="M0 0 C0.66 0 1.32 0 2 0 C2.33 0.99 2.66 1.98 3 3 C2.34 3 1.68 3 1 3 C1.66 5.31 2.32 7.62 3 10 C2.01 10 1.02 10 0 10 C0 7.69 0 5.38 0 3 C-0.66 2.67 -1.32 2.34 -2 2 C-1.34 2 -0.68 2 0 2 C0 1.34 0 0.68 0 0 Z " fill="#1E1D1F" transform="translate(234,272)"/>
<path d="M0 0 C0.66 0 1.32 0 2 0 C2.33 0.99 2.66 1.98 3 3 C2.34 3 1.68 3 1 3 C1.66 5.31 2.32 7.62 3 10 C2.01 10 1.02 10 0 10 C0 7.69 0 5.38 0 3 C-0.66 2.67 -1.32 2.34 -2 2 C-1.34 2 -0.68 2 0 2 C0 1.34 0 0.68 0 0 Z " fill="#1E1D1F" transform="translate(234,186)"/>
<path d="M0 0 C0.66 0 1.32 0 2 0 C2.33 0.99 2.66 1.98 3 3 C2.34 3 1.68 3 1 3 C1.66 5.31 2.32 7.62 3 10 C2.01 10 1.02 10 0 10 C0 7.69 0 5.38 0 3 C-0.66 2.67 -1.32 2.34 -2 2 C-1.34 2 -0.68 2 0 2 C0 1.34 0 0.68 0 0 Z " fill="#1E1D1F" transform="translate(234,100)"/>
<path d="M0 0 C0.33 0.99 0.66 1.98 1 3 C1.66 3.33 2.32 3.66 3 4 C2.34 4 1.68 4 1 4 C1 6.31 1 8.62 1 11 C1.66 11.33 2.32 11.66 3 12 C2.01 12 1.02 12 0 12 C0 9.36 0 6.72 0 4 C-0.66 3.67 -1.32 3.34 -2 3 C-1.34 3 -0.68 3 0 3 C0 2.01 0 1.02 0 0 Z " fill="#2D0A16" transform="translate(252,615)"/>
<path d="M0 0 C0.33 0.99 0.66 1.98 1 3 C1.66 3.33 2.32 3.66 3 4 C2.34 4 1.68 4 1 4 C1 6.31 1 8.62 1 11 C1.66 11.33 2.32 11.66 3 12 C2.01 12 1.02 12 0 12 C0 9.36 0 6.72 0 4 C-0.66 3.67 -1.32 3.34 -2 3 C-1.34 3 -0.68 3 0 3 C0 2.01 0 1.02 0 0 Z " fill="#2D0A16" transform="translate(225,615)"/>
<path d="M0 0 C0.33 0.99 0.66 1.98 1 3 C1.66 3.33 2.32 3.66 3 4 C2.34 4 1.68 4 1 4 C1 6.31 1 8.62 1 11 C1.66 11.33 2.32 11.66 3 12 C2.01 12 1.02 12 0 12 C0 9.36 0 6.72 0 4 C-0.66 3.67 -1.32 3.34 -2 3 C-1.34 3 -0.68 3 0 3 C0 2.01 0 1.02 0 0 Z " fill="#2D0A16" transform="translate(252,587)"/>
<path d="M0 0 C0.33 0.99 0.66 1.98 1 3 C1.66 3.33 2.32 3.66 3 4 C2.34 4 1.68 4 1 4 C1 6.31 1 8.62 1 11 C1.66 11.33 2.32 11.66 3 12 C2.01 12 1.02 12 0 12 C0 9.36 0 6.72 0 4 C-0.66 3.67 -1.32 3.34 -2 3 C-1.34 3 -0.68 3 0 3 C0 2.01 0 1.02 0 0 Z " fill="#2D0A16" transform="translate(225,587)"/>
<path d="M0 0 C1.32 0 2.64 0 4 0 C3.67 1.65 3.34 3.3 3 5 C2.01 4.67 1.02 4.34 0 4 C0 2.68 0 1.36 0 0 Z " fill="#DAE7DE" transform="translate(216,448)"/>
<path d="M0 0 C1.32 0 2.64 0 4 0 C3.67 1.65 3.34 3.3 3 5 C2.01 4.67 1.02 4.34 0 4 C0 2.68 0 1.36 0 0 Z " fill="#DAE7DE" transform="translate(216,362)"/>
<path d="M0 0 C1.32 0 2.64 0 4 0 C3.67 1.65 3.34 3.3 3 5 C2.01 4.67 1.02 4.34 0 4 C0 2.68 0 1.36 0 0 Z " fill="#DAE7DE" transform="translate(216,276)"/>
<path d="M0 0 C1.32 0 2.64 0 4 0 C3.67 1.65 3.34 3.3 3 5 C2.01 4.67 1.02 4.34 0 4 C0 2.68 0 1.36 0 0 Z " fill="#DAE7DE" transform="translate(216,190)"/>
<path d="M0 0 C1.32 0 2.64 0 4 0 C3.67 1.65 3.34 3.3 3 5 C2.01 4.67 1.02 4.34 0 4 C0 2.68 0 1.36 0 0 Z " fill="#DAE7DE" transform="translate(216,104)"/>
<path d="M0 0 C0.99 0.33 1.98 0.66 3 1 C2.67 3.31 2.34 5.62 2 8 C1.34 8 0.68 8 0 8 C0 5.36 0 2.72 0 0 Z " fill="#2B123C" transform="translate(288,764)"/>
<path d="M0 0 C1.32 0.33 2.64 0.66 4 1 C3.67 2.32 3.34 3.64 3 5 C2.01 5 1.02 5 0 5 C0 3.35 0 1.7 0 0 Z " fill="#071931" transform="translate(435,720)"/>
</svg>
